<?xml version="1.0" encoding="UTF-8"?>
<svg version="1.1" xmlns="http://www.w3.org/2000/svg" width="90" height="89">
<path d="M0 0 C5.61 0 11.22 0 17 0 C17.33 1.32 17.66 2.64 18 4 C15.36 4.66 12.72 5.32 10 6 C11.16982422 6.01981934 12.33964844 6.03963867 13.54492188 6.06005859 C17.91361862 6.13652611 22.28200004 6.22517803 26.65039062 6.31738281 C28.53574364 6.35550338 30.42116521 6.39038481 32.30664062 6.421875 C35.02759179 6.46789532 37.74807793 6.52582614 40.46875 6.5859375 C41.30241089 6.59748871 42.13607178 6.60903992 42.99499512 6.62094116 C48.28473563 6.75228596 52.90926704 7.54331436 58 9 C58 9.66 58 10.32 58 11 C59.98 11.66 61.96 12.32 64 13 C64 13.66 64 14.32 64 15 C64.66 15 65.32 15 66 15 C68.40194951 20.12415896 69.88919343 25.10140377 68.203125 30.59765625 C67.50555432 32.31378123 66.77558839 34.01723948 66.0078125 35.703125 C65.08653088 37.80279009 64.48196174 39.7645179 64 42 C65.485 42.495 65.485 42.495 67 43 C70.81185984 46.69634893 71.66257665 50.03591346 72.41015625 55.109375 C72.60480469 55.73328125 72.79945312 56.3571875 73 57 C74.485 57.495 74.485 57.495 76 58 C77.71013164 65.47604845 78.92362836 71.2695899 75.1484375 78.19921875 C72.28029445 82.69654509 69.45756009 86.02829327 65 89 C63.09887695 89.22705078 63.09887695 89.22705078 60.98828125 89.1953125 C59.85229492 89.18564453 59.85229492 89.18564453 58.69335938 89.17578125 C57.51483398 89.15064453 57.51483398 89.15064453 56.3125 89.125 C55.51521484 89.11597656 54.71792969 89.10695313 53.89648438 89.09765625 C51.930861 89.07411585 49.96539225 89.03824547 48 89 C48 88.34 48 87.68 48 87 C46.741875 86.95875 45.48375 86.9175 44.1875 86.875 C38.0138036 86.23600276 33.21220444 83.18577729 28 80 C28 79.34 28 78.68 28 78 C27.01 78 26.02 78 25 78 C25 77.34 25 76.68 25 76 C24.29875 75.773125 23.5975 75.54625 22.875 75.3125 C19.25871465 73.66158712 16.91230024 71.7091165 14 69 C14 68.34 14 67.68 14 67 C13.360625 66.731875 12.72125 66.46375 12.0625 66.1875 C10 65 10 65 9 62 C6.99983534 60.79117904 6.99983534 60.79117904 5 60 C5 59.34 5 58.68 5 58 C4.34 58 3.68 58 3 58 C-1.80361268 51.13769617 -5.41712922 43.55381068 -9 36 C-9.38800781 35.236875 -9.77601562 34.47375 -10.17578125 33.6875 C-11.44580646 29.54637515 -11.44927043 25.49634309 -11.5 21.1875 C-11.54125 20.32318359 -11.5825 19.45886719 -11.625 18.56835938 C-11.69783882 12.53639424 -10.376007 9.16822982 -6.57568359 4.48950195 C-4.51024596 2.53703294 -2.82977145 2 0 2 C0 1.34 0 0.68 0 0 Z M7 7 C2.67008411 11.46959059 0.35577326 16.72688597 -0.3125 22.875 C-0.18454062 25.21326123 -0.18454062 25.21326123 2 27 C2.81936968 29.53961702 3.46336829 32.10169933 4.12109375 34.6875 C4.87042564 37.33301119 4.87042564 37.33301119 8 39 C7.67 37.35 7.34 35.7 7 34 C7.66 33.67 8.32 33.34 9 33 C8.67 32.34 8.34 31.68 8 31 C7.92765879 28.1786928 7.90722481 25.38275002 7.9375 22.5625 C7.94201172 21.78583984 7.94652344 21.00917969 7.95117188 20.20898438 C7.96365061 18.13929654 7.98153936 16.06964313 8 14 C8 13.01 8 12.02 8 11 C8.3062434 9.66018514 8.63451555 8.32488113 9 7 C8.34 7 7.68 7 7 7 Z M26 21 C26 25.29 26 29.58 26 34 C28.56211075 34.19569589 31.12432391 34.38180612 33.6875 34.5625 C34.40873047 34.61857422 35.12996094 34.67464844 35.87304688 34.73242188 C39.74779869 34.99781583 43.27745135 35.20435397 47 34 C49.31607874 31.54366927 49.31607874 31.54366927 51 29 C50.34 27.35 49.68 25.7 49 24 C48.34 24 47.68 24 47 24 C47 23.34 47 22.68 47 22 C44.65147472 20.82573736 43.26225935 20.88491827 40.6484375 20.90234375 C39.37226562 20.90717773 39.37226562 20.90717773 38.0703125 20.91210938 C37.18085937 20.92048828 36.29140625 20.92886719 35.375 20.9375 C34.02921875 20.94426758 34.02921875 20.94426758 32.65625 20.95117188 C30.43747169 20.96297389 28.21872757 20.98090961 26 21 Z M26 48 C26 52.62 26 57.24 26 62 C29.95837814 62.02686682 33.91657562 62.04677414 37.875 62.0625 C39.00292969 62.07087891 40.13085938 62.07925781 41.29296875 62.08789062 C42.90751953 62.09272461 42.90751953 62.09272461 44.5546875 62.09765625 C46.04718018 62.10551147 46.04718018 62.10551147 47.56982422 62.11352539 C50.00960773 62.1639415 50.00960773 62.1639415 52 61 C52 60.34 52 59.68 52 59 C52.66 58.67 53.32 58.34 54 58 C54.33397787 55.12586875 54.33397787 55.12586875 54 52 C51.31355612 49.11456028 48.81216759 48.5517611 45 48 C41.72792369 47.88336213 38.46110001 47.90576488 35.1875 47.9375 C33.86202148 47.94426758 33.86202148 47.94426758 32.50976562 47.95117188 C30.33981441 47.96290134 28.16989828 47.98083505 26 48 Z M71 63 C70.9175 63.78375 70.835 64.5675 70.75 65.375 C70 68 70 68 67.9375 69.3125 C67.298125 69.539375 66.65875 69.76625 66 70 C66 70.66 66 71.32 66 72 C61.05 73.485 61.05 73.485 56 75 C56 75.33 56 75.66 56 76 C60.14183107 76.06574335 63.65135915 75.94380023 67.12109375 73.515625 C70.20523555 70.51483838 72.23650313 68.32330102 73 64 C72.34 63.67 71.68 63.34 71 63 Z " fill="#0F2241" transform="translate(11,0)"/>
<path d="M0 0 C5.61 0 11.22 0 17 0 C17.33 1.32 17.66 2.64 18 4 C15.36 4.66 12.72 5.32 10 6 C11.16982422 6.01981934 12.33964844 6.03963867 13.54492188 6.06005859 C17.91361862 6.13652611 22.28200004 6.22517803 26.65039062 6.31738281 C28.53574364 6.35550338 30.42116521 6.39038481 32.30664062 6.421875 C35.02759179 6.46789532 37.74807793 6.52582614 40.46875 6.5859375 C41.30241089 6.59748871 42.13607178 6.60903992 42.99499512 6.62094116 C48.28473563 6.75228596 52.90926704 7.54331436 58 9 C57.67 9.66 57.34 10.32 57 11 C56.20706543 10.84152588 55.41413086 10.68305176 54.59716797 10.51977539 C50.19848655 9.88418473 45.88384823 9.76926492 41.4453125 9.68359375 C40.54376434 9.66281265 39.64221619 9.64203156 38.71334839 9.62062073 C35.8506386 9.5555542 32.98784181 9.49644086 30.125 9.4375 C28.17707456 9.39427393 26.22915771 9.35065836 24.28125 9.30664062 C19.52092111 9.19991711 14.76050524 9.09853036 10 9 C9.9505269 14.33852794 9.91424575 19.67692214 9.89013672 25.015625 C9.88008509 26.83140386 9.86644172 28.64716656 9.84912109 30.46289062 C9.82483594 33.07425935 9.81350852 35.68541387 9.8046875 38.296875 C9.79436493 39.10743347 9.78404236 39.91799194 9.77340698 40.75311279 C9.74520579 46.19515873 9.74520579 46.19515873 12 51 C14.03268602 53.16343011 14.03268602 53.16343011 17 55 C19.37009302 56.95900623 21.67747071 58.98421986 24 61 C24 56.71 24 52.42 24 48 C24.66 48 25.32 48 26 48 C26 52.62 26 57.24 26 62 C33.26 62 40.52 62 48 62 C47.505 62.99 47.505 62.99 47 64 C40.73 64.33 34.46 64.66 28 65 C29.32 65.66 30.64 66.32 32 67 C32 67.66 32 68.32 32 69 C32.92232422 69.29003906 32.92232422 69.29003906 33.86328125 69.5859375 C34.67152344 69.84632812 35.47976562 70.10671875 36.3125 70.375 C37.11300781 70.63023438 37.91351563 70.88546875 38.73828125 71.1484375 C41 72 41 72 44 74 C47.04122038 74.06063592 47.04122038 74.06063592 50.375 73.6875 C52.05722656 73.53861328 52.05722656 73.53861328 53.7734375 73.38671875 C56.56176793 73.05252418 59.25860641 72.60064242 62 72 C62 72.66 62 73.32 62 74 C64.83654255 73.68482861 66.27662994 72.80240718 68.625 71.125 C71.9570305 66.74074934 72.3689242 62.37827285 73 57 C74.485 57.495 74.485 57.495 76 58 C77.71013164 65.47604845 78.92362836 71.2695899 75.1484375 78.19921875 C72.28029445 82.69654509 69.45756009 86.02829327 65 89 C63.09887695 89.22705078 63.09887695 89.22705078 60.98828125 89.1953125 C59.85229492 89.18564453 59.85229492 89.18564453 58.69335938 89.17578125 C57.51483398 89.15064453 57.51483398 89.15064453 56.3125 89.125 C55.51521484 89.11597656 54.71792969 89.10695313 53.89648438 89.09765625 C51.930861 89.07411585 49.96539225 89.03824547 48 89 C48 88.34 48 87.68 48 87 C46.741875 86.95875 45.48375 86.9175 44.1875 86.875 C38.0138036 86.23600276 33.21220444 83.18577729 28 80 C28 79.34 28 78.68 28 78 C27.01 78 26.02 78 25 78 C25 77.34 25 76.68 25 76 C24.29875 75.773125 23.5975 75.54625 22.875 75.3125 C19.25871465 73.66158712 16.91230024 71.7091165 14 69 C14 68.34 14 67.68 14 67 C13.360625 66.731875 12.72125 66.46375 12.0625 66.1875 C10 65 10 65 9 62 C6.99983534 60.79117904 6.99983534 60.79117904 5 60 C5 59.34 5 58.68 5 58 C4.34 58 3.68 58 3 58 C-1.80361268 51.13769617 -5.41712922 43.55381068 -9 36 C-9.38800781 35.236875 -9.77601562 34.47375 -10.17578125 33.6875 C-11.44580646 29.54637515 -11.44927043 25.49634309 -11.5 21.1875 C-11.54125 20.32318359 -11.5825 19.45886719 -11.625 18.56835938 C-11.69783882 12.53639424 -10.376007 9.16822982 -6.57568359 4.48950195 C-4.51024596 2.53703294 -2.82977145 2 0 2 C0 1.34 0 0.68 0 0 Z M7 7 C2.67008411 11.46959059 0.35577326 16.72688597 -0.3125 22.875 C-0.18454062 25.21326123 -0.18454062 25.21326123 2 27 C2.81936968 29.53961702 3.46336829 32.10169933 4.12109375 34.6875 C4.87042564 37.33301119 4.87042564 37.33301119 8 39 C7.67 37.35 7.34 35.7 7 34 C7.66 33.67 8.32 33.34 9 33 C8.67 32.34 8.34 31.68 8 31 C7.92765879 28.1786928 7.90722481 25.38275002 7.9375 22.5625 C7.94201172 21.78583984 7.94652344 21.00917969 7.95117188 20.20898438 C7.96365061 18.13929654 7.98153936 16.06964313 8 14 C8 13.01 8 12.02 8 11 C8.3062434 9.66018514 8.63451555 8.32488113 9 7 C8.34 7 7.68 7 7 7 Z " fill="#44A6D0" transform="translate(11,0)"/>
<path d="M0 0 C1.32 0.33 2.64 0.66 4 1 C4 1.66 4 2.32 4 3 C4.66 3 5.32 3 6 3 C8.40194951 8.12415896 9.88919343 13.10140377 8.203125 18.59765625 C7.50555432 20.31378123 6.77558839 22.01723948 6.0078125 23.703125 C5.08653088 25.80279009 4.48196174 27.7645179 4 30 C4.99 30.33 5.98 30.66 7 31 C11.11504595 35.599169 12.14948137 38.77681167 12.1875 44.875 C12.20167969 45.90367188 12.21585938 46.93234375 12.23046875 47.9921875 C11.86179652 52.80367258 10.68389058 55.30020499 7.3125 58.75 C3.94862397 61.3252161 1.2679871 61.72901669 -3 62 C-3.96164063 62.15855469 -4.92328125 62.31710938 -5.9140625 62.48046875 C-14.87368491 63.73139455 -20.38792927 61.73182775 -28 57 C-28 56.34 -28 55.68 -28 55 C-28.639375 54.87625 -29.27875 54.7525 -29.9375 54.625 C-30.618125 54.41875 -31.29875 54.2125 -32 54 C-32.33 53.34 -32.66 52.68 -33 52 C-32.13048706 51.970271 -32.13048706 51.970271 -31.2434082 51.93994141 C-28.59934063 51.84427399 -25.9560183 51.73476547 -23.3125 51.625 C-21.94448242 51.57859375 -21.94448242 51.57859375 -20.54882812 51.53125 C-15.98796369 51.33223046 -12.13809725 51.14309878 -8 49 C-7.80508548 47.54263913 -7.61930642 46.08405407 -7.4375 44.625 C-7.33308594 43.81289063 -7.22867188 43.00078125 -7.12109375 42.1640625 C-6.81762672 39.95100814 -6.81762672 39.95100814 -8 38 C-6.68 38 -5.36 38 -4 38 C-3.855625 39.093125 -3.71125 40.18625 -3.5625 41.3125 C-3.11711896 44.93122987 -3.11711896 44.93122987 -2 48 C-1.01 47.34 -0.02 46.68 1 46 C1.2502157 42.91634129 1.2502157 42.91634129 1 40 C2.175625 39.8453125 2.175625 39.8453125 3.375 39.6875 C6.33045181 39.22404978 6.33045181 39.22404978 8 36 C5.38485683 33.87961365 2.80362384 31.86908256 0 30 C-0.99 30.33 -1.98 30.66 -3 31 C-3.28875 30.236875 -3.5775 29.47375 -3.875 28.6875 C-4.96269013 25.84970692 -4.96269013 25.84970692 -7 23 C-10.96 23.33 -14.92 23.66 -19 24 C-18.67 23.34 -18.34 22.68 -18 22 C-16.35 22 -14.7 22 -13 22 C-12.67 21.01 -12.34 20.02 -12 19 C-11.34 19 -10.68 19 -10 19 C-10.34227572 16.02934491 -10.34227572 16.02934491 -11 13 C-11.66 12.67 -12.32 12.34 -13 12 C-13 11.34 -13 10.68 -13 10 C-13.66 9.67 -14.32 9.34 -15 9 C-13.68 9 -12.36 9 -11 9 C-10.67 9.33 -10.34 9.66 -10 10 C-9.34 9.34 -8.68 8.68 -8 8 C-8 7.01 -8 6.02 -8 5 C-2.25 2 -2.25 2 0 2 C0 1.34 0 0.68 0 0 Z " fill="#142645" transform="translate(71,12)"/>
<path d="M0 0 C1.52139933 2.02853243 3.03759324 4.0532571 4.5 6.125 C6.04241242 8.24725536 6.04241242 8.24725536 9 10 C11.37009302 11.95900623 13.67747071 13.98421986 16 16 C16 11.71 16 7.42 16 3 C16.66 3 17.32 3 18 3 C18 7.62 18 12.24 18 17 C25.26 17 32.52 17 40 17 C39.67 17.66 39.34 18.32 39 19 C32.73 19.33 26.46 19.66 20 20 C21.32 20.66 22.64 21.32 24 22 C24 22.66 24 23.32 24 24 C24.92232422 24.29003906 24.92232422 24.29003906 25.86328125 24.5859375 C26.67152344 24.84632812 27.47976562 25.10671875 28.3125 25.375 C29.11300781 25.63023438 29.91351563 25.88546875 30.73828125 26.1484375 C33 27 33 27 36 29 C39.04122038 29.06063592 39.04122038 29.06063592 42.375 28.6875 C44.05722656 28.53861328 44.05722656 28.53861328 45.7734375 28.38671875 C48.56176793 28.05252418 51.25860641 27.60064242 54 27 C54 27.66 54 28.32 54 29 C56.83654255 28.68482861 58.27662994 27.80240718 60.625 26.125 C63.9570305 21.74074934 64.3689242 17.37827285 65 12 C65.99 12.33 66.98 12.66 68 13 C69.69218391 20.39758776 70.99609375 26.47337617 67.29296875 33.38671875 C66 35 66 35 63.25 36.0625 C62.5075 36.041875 61.765 36.02125 61 36 C61 36.66 61 37.32 61 38 C58.28344597 39.35827701 56.09210594 39.1323445 53.0625 39.125 C51.47115234 39.12886719 51.47115234 39.12886719 49.84765625 39.1328125 C47 39 47 39 44 38 C43.25492188 37.88011719 42.50984375 37.76023438 41.7421875 37.63671875 C32.87273358 35.57728714 24.50849349 30.21265288 18 24 C17.34 23.67 16.68 23.34 16 23 C15.67 22.01 15.34 21.02 15 20 C14.278125 19.5875 13.55625 19.175 12.8125 18.75 C6.85805178 15.04500999 3.09065278 9.18130556 0 3 C0 2.01 0 1.02 0 0 Z " fill="#106EB1" transform="translate(19,45)"/>
<path d="M0 0 C1.75 2.4375 1.75 2.4375 3 5 C3.495 5.99 3.495 5.99 4 7 C4.99 6.67 5.98 6.34 7 6 C7 6.66 7 7.32 7 8 C9.475 8.99 9.475 8.99 12 10 C12 10.66 12 11.32 12 12 C12.99 12.33 13.98 12.66 15 13 C13.62736683 15.74526635 11.59407253 16.44355648 9 18 C7.90665292 19.93354954 7.90665292 19.93354954 7.6875 22 C7 24 7 24 4.9375 25.25 C4.298125 25.4975 3.65875 25.745 3 26 C1.71682108 22.15046324 1.93356363 19.05261865 2 15 C-5.86333399 14.16949057 -13.72654292 13.72324265 -21.62426758 13.39282227 C-27.78453071 13.10773465 -27.78453071 13.10773465 -30 12 C-29.67 8.7 -29.34 5.4 -29 2 C-27.85402344 1.95101562 -26.70804688 1.90203125 -25.52734375 1.8515625 C-23.99737465 1.77647199 -22.46742782 1.70092694 -20.9375 1.625 C-20.18533203 1.5940625 -19.43316406 1.563125 -18.65820312 1.53125 C-12.71141996 1.2223262 -5.45407676 -2.27253198 0 0 Z " fill="#0B1D3C" transform="translate(65,35)"/>
<path d="M0 0 C5.61 0 11.22 0 17 0 C17.33 1.32 17.66 2.64 18 4 C17.21753906 4.18175781 16.43507813 4.36351562 15.62890625 4.55078125 C14.61699219 4.80214844 13.60507812 5.05351563 12.5625 5.3125 C11.55316406 5.55613281 10.54382813 5.79976563 9.50390625 6.05078125 C8.67761719 6.36402344 7.85132812 6.67726563 7 7 C6.67 7.99 6.34 8.98 6 10 C5.34 10 4.68 10 4 10 C3.80664062 10.69867188 3.61328125 11.39734375 3.4140625 12.1171875 C3.15367188 13.02726563 2.89328125 13.93734375 2.625 14.875 C2.36976562 15.77992187 2.11453125 16.68484375 1.8515625 17.6171875 C1 20 1 20 -1 22 C-1.46290221 24.66242821 -1.46290221 24.66242821 -1.625 27.625 C-1.69976562 28.62789062 -1.77453125 29.63078125 -1.8515625 30.6640625 C-1.90054687 31.43492188 -1.94953125 32.20578125 -2 33 C-1.34 33 -0.68 33 0 33 C0.50512244 34.60256108 1.00391627 36.20711792 1.5 37.8125 C1.7784375 38.70582031 2.056875 39.59914062 2.34375 40.51953125 C3 43 3 43 3 46 C1.68 46 0.36 46 -1 46 C-2.33333333 43.33333333 -3.66666667 40.66666667 -5 38 C-5.37382813 37.31421875 -5.74765625 36.6284375 -6.1328125 35.921875 C-7 34 -7 34 -7 31 C-7.66 31 -8.32 31 -9 31 C-11.52152361 23.43542917 -10.88444233 13.41713743 -8 6 C-5.5625 3.5 -5.5625 3.5 -3 2 C-2.01 2 -1.02 2 0 2 C0 1.34 0 0.68 0 0 Z " fill="#33A5D4" transform="translate(11,0)"/>
<path d="M0 0 C1.37562854 1.28965176 2.70766393 2.62689293 4 4 C4 4.66 4 5.32 4 6 C4.598125 6.268125 5.19625 6.53625 5.8125 6.8125 C7.99721913 7.99849039 9.29470795 9.22056482 11 11 C11.99 11.66 12.98 12.32 14 13 C14 13.99 14 14.98 14 16 C14.804375 16.268125 15.60875 16.53625 16.4375 16.8125 C17.283125 17.204375 18.12875 17.59625 19 18 C19.33 18.99 19.66 19.98 20 21 C22.22368704 22.03875401 22.22368704 22.03875401 25 23 C27.95642316 24.51242944 30.904288 26.03500123 33.828125 27.609375 C37.4126426 29.46397324 39.97429668 30.28120722 44 30 C44.33 30.33 44.66 30.66 45 31 C47.12119924 31.15193163 49.24855315 31.22183514 51.375 31.25 C52.53773437 31.27578125 53.70046875 31.3015625 54.8984375 31.328125 C58.27930717 30.97045113 58.93159133 30.53546869 61 28 C61.66 28 62.32 28 63 28 C63 28.66 63 29.32 63 30 C62.34 30.66 61.68 31.32 61 32 C60.525625 32.495 60.05125 32.99 59.5625 33.5 C56.73648955 36.21297003 54.82787858 37.25305081 50.98828125 37.1953125 C50.23095703 37.18886719 49.47363281 37.18242188 48.69335938 37.17578125 C47.90767578 37.15902344 47.12199219 37.14226562 46.3125 37.125 C45.51521484 37.11597656 44.71792969 37.10695312 43.89648438 37.09765625 C41.930861 37.07411585 39.96539225 37.03824547 38 37 C38 36.34 38 35.68 38 35 C36.741875 34.95875 35.48375 34.9175 34.1875 34.875 C28.0138036 34.23600276 23.21220444 31.18577729 18 28 C18 27.34 18 26.68 18 26 C17.01 26 16.02 26 15 26 C15 25.34 15 24.68 15 24 C14.29875 23.773125 13.5975 23.54625 12.875 23.3125 C9.25871465 21.66158712 6.91230024 19.7091165 4 17 C4 16.34 4 15.68 4 15 C2.68 14.34 1.36 13.68 0 13 C0 12.01 0 11.02 0 10 C0.5259375 10.7115625 0.5259375 10.7115625 1.0625 11.4375 C3.84163543 13.67873825 6.5144717 13.67117658 10 14 C9.16640629 13.16640629 8.305074 12.36066808 7.4375 11.5625 C6 10 6 10 6 8 C5.38125 7.896875 4.7625 7.79375 4.125 7.6875 C2 7 2 7 0 4 C0 2.68 0 1.36 0 0 Z " fill="#4AA0C7" transform="translate(21,52)"/>
<path d="M0 0 C4.2295083 1.4098361 5.08210924 4.16421847 7 8 C7.99 7.67 8.98 7.34 10 7 C10 7.66 10 8.32 10 9 C11.65 9.66 13.3 10.32 15 11 C15 11.66 15 12.32 15 13 C15.99 13.33 16.98 13.66 18 14 C16.62736683 16.74526635 14.59407253 17.44355648 12 19 C10.90665292 20.93354954 10.90665292 20.93354954 10.6875 23 C10 25 10 25 7.9375 26.25 C7.298125 26.4975 6.65875 26.745 6 27 C4.71682108 23.15046324 4.93356363 20.05261865 5 16 C1.37 15.67 -2.26 15.34 -6 15 C-5 13 -5 13 -2 12 C-2.33 11.01 -2.66 10.02 -3 9 C-1.35 8.34 0.3 7.68 2 7 C2 6.34 2 5.68 2 5 C0.02 5.66 -1.96 6.32 -4 7 C-4 4 -4 4 -2 1.8125 C-1.34 1.214375 -0.68 0.61625 0 0 Z " fill="#142747" transform="translate(62,34)"/>
<path d="M0 0 C5.61 0 11.22 0 17 0 C17.33 1.32 17.66 2.64 18 4 C17.21753906 4.18175781 16.43507813 4.36351562 15.62890625 4.55078125 C14.61699219 4.80214844 13.60507812 5.05351563 12.5625 5.3125 C11.55316406 5.55613281 10.54382813 5.79976563 9.50390625 6.05078125 C8.67761719 6.36402344 7.85132812 6.67726563 7 7 C6.67 7.99 6.34 8.98 6 10 C5.34 10 4.68 10 4 10 C3.01 13.3 2.02 16.6 1 20 C0.34 20 -0.32 20 -1 20 C-0.67 17.36 -0.34 14.72 0 12 C-0.99 12 -1.98 12 -3 12 C-2.67 10.35 -2.34 8.7 -2 7 C-5.87797662 6.56613908 -5.87797662 6.56613908 -7.75 8.5 C-8.1625 8.995 -8.575 9.49 -9 10 C-7.74155722 6.11980141 -6.57583797 4.0588158 -3 2 C-2.01 2 -1.02 2 0 2 C0 1.34 0 0.68 0 0 Z " fill="#29A9E1" transform="translate(11,0)"/>
<path d="M0 0 C2.93756119 -0.0269501 5.87487555 -0.04681474 8.8125 -0.0625 C9.64587891 -0.07087891 10.47925781 -0.07925781 11.33789062 -0.08789062 C12.14033203 -0.09111328 12.94277344 -0.09433594 13.76953125 -0.09765625 C14.87711792 -0.10551147 14.87711792 -0.10551147 16.00708008 -0.11352539 C18 0 18 0 21 1 C21 2.32 21 3.64 21 5 C21.66 5 22.32 5 23 5 C23 5.99 23 6.98 23 8 C28.94 7.505 28.94 7.505 35 7 C32.64876551 9.35123449 31.46380837 9.51145477 28.25 10.125 C27.40953125 10.29257813 26.5690625 10.46015625 25.703125 10.6328125 C19.6484189 11.45527258 16.06488189 10.90127034 10.625 8 C9.56539062 7.443125 8.50578125 6.88625 7.4140625 6.3125 C6.21910156 5.6628125 6.21910156 5.6628125 5 5 C5 4.34 5 3.68 5 3 C4.360625 2.87625 3.72125 2.7525 3.0625 2.625 C2.381875 2.41875 1.70125 2.2125 1 2 C0.67 1.34 0.34 0.68 0 0 Z " fill="#0C274C" transform="translate(38,64)"/>
<path d="M0 0 C5.69253284 -0.04967973 11.38493762 -0.08585156 17.07763672 -0.10986328 C19.01157837 -0.11988036 20.94550504 -0.13349784 22.87939453 -0.15087891 C25.66963414 -0.17531686 28.45967236 -0.18652628 31.25 -0.1953125 C32.533302 -0.21079636 32.533302 -0.21079636 33.8425293 -0.22659302 C39.2306838 -0.22758534 43.82251183 0.49163903 49 2 C48.67 2.66 48.34 3.32 48 4 C46.81059814 3.76228882 46.81059814 3.76228882 45.59716797 3.51977539 C41.19848655 2.88418473 36.88384823 2.76926492 32.4453125 2.68359375 C31.54376434 2.66281265 30.64221619 2.64203156 29.71334839 2.62062073 C26.8506386 2.5555542 23.98784181 2.49644086 21.125 2.4375 C19.17707456 2.39427393 17.22915771 2.35065836 15.28125 2.30664062 C10.52092096 2.19918856 5.76052024 2.09979681 1 2 C1 13.22 1 24.44 1 36 C0.67 36 0.34 36 0 36 C-0.09087891 34.95199219 -0.09087891 34.95199219 -0.18359375 33.8828125 C-0.26738281 32.97273438 -0.35117187 32.06265625 -0.4375 31.125 C-0.51871094 30.22007813 -0.59992187 29.31515625 -0.68359375 28.3828125 C-0.86989285 25.98889139 -0.86989285 25.98889139 -2 24 C-2.07234121 21.1786928 -2.09277519 18.38275002 -2.0625 15.5625 C-2.05798828 14.78583984 -2.05347656 14.00917969 -2.04882812 13.20898438 C-2.03634939 11.13929654 -2.01846064 9.06964313 -2 7 C-2 6.01 -2 5.02 -2 4 C-1 1.8125 -1 1.8125 0 0 Z " fill="#7F8698" transform="translate(20,7)"/>
<path d="M0 0 C1.52139933 2.02853243 3.03759324 4.0532571 4.5 6.125 C6.04241242 8.24725536 6.04241242 8.24725536 9 10 C11.37009302 11.95900623 13.67747071 13.98421986 16 16 C16 11.71 16 7.42 16 3 C16.66 3 17.32 3 18 3 C18 7.62 18 12.24 18 17 C25.26 17 32.52 17 40 17 C39.67 17.66 39.34 18.32 39 19 C38.16807129 19.029729 38.16807129 19.029729 37.31933594 19.06005859 C34.79576307 19.15557651 32.27298776 19.26514567 29.75 19.375 C28.87730469 19.4059375 28.00460938 19.436875 27.10546875 19.46875 C25.83896484 19.52675781 25.83896484 19.52675781 24.546875 19.5859375 C23.77182617 19.6173584 22.99677734 19.6487793 22.19824219 19.68115234 C19.79134258 20.03026506 18.10397705 20.80551104 16 22 C15.57332031 21.55785156 15.14664063 21.11570312 14.70703125 20.66015625 C13.10705392 19.10411422 11.45336952 17.7974225 9.6875 16.4375 C5.33028967 12.74777721 2.41790519 8.14579821 0 3 C0 2.01 0 1.02 0 0 Z " fill="#6690AF" transform="translate(19,45)"/>
<path d="M0 0 C3.33363045 2.64589007 4.03826418 5.68498903 5.1875 9.6875 C5.53167969 10.86699219 5.87585938 12.04648437 6.23046875 13.26171875 C6.48441406 14.16535156 6.73835938 15.06898437 7 16 C7.33 16 7.66 16 8 16 C8 15.01 8 14.02 8 13 C8.66 13 9.32 13 10 13 C9.98839844 13.96421875 9.97679687 14.9284375 9.96484375 15.921875 C9.95582031 17.18515625 9.94679688 18.4484375 9.9375 19.75 C9.92589844 21.00296875 9.91429687 22.2559375 9.90234375 23.546875 C9.97978973 26.28536501 10.17219185 28.41880293 11 31 C10.01 30.67 9.02 30.34 8 30 C7.67 28.35 7.34 26.7 7 25 C6.34 25 5.68 25 5 25 C2.99706653 21.99559979 2.50728374 20.29006055 1.875 16.8125 C1.70742187 15.91144531 1.53984375 15.01039062 1.3671875 14.08203125 C1.24601563 13.39496094 1.12484375 12.70789062 1 12 C0.34 12 -0.32 12 -1 12 C-1.02687279 10.18757948 -1.04633715 8.37504767 -1.0625 6.5625 C-1.07410156 5.55316406 -1.08570313 4.54382813 -1.09765625 3.50390625 C-1 1 -1 1 0 0 Z " fill="#7EBEDA" transform="translate(10,21)"/>
<path d="M0 0 C1.37562854 1.28965176 2.70766393 2.62689293 4 4 C4 4.66 4 5.32 4 6 C4.598125 6.268125 5.19625 6.53625 5.8125 6.8125 C7.99721913 7.99849039 9.29470795 9.22056482 11 11 C11.99 11.66 12.98 12.32 14 13 C14 13.99 14 14.98 14 16 C14.804375 16.268125 15.60875 16.53625 16.4375 16.8125 C17.283125 17.204375 18.12875 17.59625 19 18 C19.33 18.99 19.66 19.98 20 21 C20.99 21.33 21.98 21.66 23 22 C22.34 22.33 21.68 22.66 21 23 C20.01 22.34 19.02 21.68 18 21 C18 20.34 18 19.68 18 19 C16.02 18.67 14.04 18.34 12 18 C12 18.66 12 19.32 12 20 C12.99 20.66 13.98 21.32 15 22 C15 22.66 15 23.32 15 24 C10.39860359 22.51131293 7.49772906 20.25370145 4 17 C4 16.34 4 15.68 4 15 C2.68 14.34 1.36 13.68 0 13 C0 12.01 0 11.02 0 10 C0.5259375 10.7115625 0.5259375 10.7115625 1.0625 11.4375 C3.84163543 13.67873825 6.5144717 13.67117658 10 14 C9.16640629 13.16640629 8.305074 12.36066808 7.4375 11.5625 C6 10 6 10 6 8 C5.38125 7.896875 4.7625 7.79375 4.125 7.6875 C2 7 2 7 0 4 C0 2.68 0 1.36 0 0 Z " fill="#84C2DE" transform="translate(21,52)"/>
<path d="M0 0 C2.33944736 0.28730055 4.6739143 0.61936779 7 1 C7 1.66 7 2.32 7 3 C7.61488281 3.19335938 8.22976562 3.38671875 8.86328125 3.5859375 C10.07564453 3.97652344 10.07564453 3.97652344 11.3125 4.375 C12.11300781 4.63023438 12.91351563 4.88546875 13.73828125 5.1484375 C16 6 16 6 19 8 C22.04122038 8.06063592 22.04122038 8.06063592 25.375 7.6875 C27.05722656 7.53861328 27.05722656 7.53861328 28.7734375 7.38671875 C31.56176793 7.05252418 34.25860641 6.60064242 37 6 C37 6.66 37 7.32 37 8 C34.69 8.66 32.38 9.32 30 10 C32.475 10.495 32.475 10.495 35 11 C35 11.33 35 11.66 35 12 C28.48013116 12.32904011 23.12351407 12.05959107 17 9.73046875 C14.37764353 8.77269402 11.75798707 8.38483541 9 8 C5.16100593 7.43544205 3.58994909 5.848944 1 3 C0.34 2.34 -0.32 1.68 -1 1 C-0.67 0.67 -0.34 0.34 0 0 Z " fill="#13639E" transform="translate(36,66)"/>
<path d="M0 0 C0.78688445 2.77723925 1.11949924 5.22610077 1.09765625 8.109375 C1.09443359 8.86347656 1.09121094 9.61757813 1.08789062 10.39453125 C1.07951172 11.17183594 1.07113281 11.94914062 1.0625 12.75 C1.05798828 13.54277344 1.05347656 14.33554687 1.04882812 15.15234375 C1.03708565 17.10159508 1.01915146 19.05080738 1 21 C1.66 21 2.32 21 3 21 C3.54527344 22.80597656 3.54527344 22.80597656 4.1015625 24.6484375 C4.60811071 26.22436527 5.11599322 27.7998646 5.625 29.375 C5.86089844 30.1690625 6.09679687 30.963125 6.33984375 31.78125 C7.07786865 34.01424843 7.78728502 35.98328745 9 38 C12.05028848 39.64594251 12.05028848 39.64594251 15 40 C15.103125 40.86625 15.20625 41.7325 15.3125 42.625 C16.03398414 46.16683123 17.27123261 48.84312042 19 52 C17.68 51.34 16.36 50.68 15 50 C15 49.34 15 48.68 15 48 C14.34 48 13.68 48 13 48 C8.19638732 41.13769617 4.58287078 33.55381068 1 26 C0.40832031 24.86884766 0.40832031 24.86884766 -0.1953125 23.71484375 C-1.46475074 19.43203027 -1.24740763 15.18947089 -1.1875 10.75 C-1.18685547 9.82703125 -1.18621094 8.9040625 -1.18554688 7.953125 C-1.14046308 1.14046308 -1.14046308 1.14046308 0 0 Z " fill="#A3D4E8" transform="translate(1,10)"/>
<path d="M0 0 C0.99 0.33 1.98 0.66 3 1 C4.94327249 9.49525203 5.73925726 15.42110513 1 23 C-0.35015859 18.94952424 0.37915002 16.2079832 1 12 C-0.31287621 13.14540225 -1.62529021 14.29133433 -2.9375 15.4375 C-3.66839844 16.07558594 -4.39929688 16.71367188 -5.15234375 17.37109375 C-6.12139353 18.22541459 -7.08651175 19.08651175 -8 20 C-9.68608966 20.07205511 -11.37500659 20.08386068 -13.0625 20.0625 C-13.98160156 20.05347656 -14.90070313 20.04445313 -15.84765625 20.03515625 C-16.55792969 20.02355469 -17.26820312 20.01195313 -18 20 C-18.33 19.34 -18.66 18.68 -19 18 C-17.4221875 18.061875 -17.4221875 18.061875 -15.8125 18.125 C-10.80564288 17.96084075 -8.34208906 16.96755258 -4.3125 14.0625 C-1.02953137 9.71478479 -0.62451845 5.32238861 0 0 Z " fill="#6398B8" transform="translate(84,57)"/>
<path d="M0 0 C0.66 0 1.32 0 2 0 C2.66 1.98 3.32 3.96 4 6 C3.67 6.33 3.34 6.66 3 7 C2.63239269 9.32817964 2.29758419 11.6618385 2 14 C0.0625 14.5625 0.0625 14.5625 -2 15 C-3.64849053 13.35150947 -3.2102571 11.44953365 -3.25 9.1875 C-3.27578125 8.31480469 -3.3015625 7.44210938 -3.328125 6.54296875 C-2.93935277 3.52998398 -2.08864858 2.17483069 0 0 Z " fill="#29ABE5" transform="translate(6,9)"/>
<path d="M0 0 C5.61 0 11.22 0 17 0 C16.34 0.66 15.68 1.32 15 2 C10.63194681 1.96631321 6.35224295 1.42669049 2 1 C2 5.29 2 9.58 2 14 C5.96 14 9.92 14 14 14 C14.33 14.66 14.66 15.32 15 16 C10.05 16 5.1 16 0 16 C0 10.72 0 5.44 0 0 Z " fill="#747F90" transform="translate(35,20)"/>
<path d="M0 0 C6.3285277 0.52737731 12.09910993 1.71641001 18.203125 3.4765625 C21.18385128 4.03440792 23.08072969 3.67367776 26 3 C28.3125 3.9375 28.3125 3.9375 30 5 C29 6 29 6 25.18359375 6.09765625 C23.60153318 6.09098089 22.01948841 6.07901875 20.4375 6.0625 C19.63119141 6.05798828 18.82488281 6.05347656 17.99414062 6.04882812 C15.99606244 6.03700518 13.99802217 6.01906914 12 6 C12 5.34 12 4.68 12 4 C11.38511719 3.96261719 10.77023438 3.92523438 10.13671875 3.88671875 C9.32847656 3.82097656 8.52023438 3.75523438 7.6875 3.6875 C6.88699219 3.62949219 6.08648437 3.57148437 5.26171875 3.51171875 C2.63727666 2.91793306 1.69179328 2.04219706 0 0 Z " fill="#81BFDA" transform="translate(47,83)"/>
<path d="M0 0 C0.33 0 0.66 0 1 0 C1 11.22 1 22.44 1 34 C0.67 34 0.34 34 0 34 C-0.09087891 32.95199219 -0.09087891 32.95199219 -0.18359375 31.8828125 C-0.26738281 30.97273438 -0.35117187 30.06265625 -0.4375 29.125 C-0.51871094 28.22007813 -0.59992187 27.31515625 -0.68359375 26.3828125 C-0.86989285 23.98889139 -0.86989285 23.98889139 -2 22 C-2.1250348 19.21724882 -2.18517508 16.47043207 -2.1875 13.6875 C-2.19974609 12.92759766 -2.21199219 12.16769531 -2.22460938 11.38476562 C-2.23570015 7.12960614 -1.96104913 3.88334235 0 0 Z " fill="#768291" transform="translate(20,9)"/>
<path d="M0 0 C0.66 0 1.32 0 2 0 C3.32 2.97 4.64 5.94 6 9 C6 7.68 6 6.36 6 5 C6.66 5 7.32 5 8 5 C8 8.63 8 12.26 8 16 C7.34 16.33 6.68 16.66 6 17 C6 16.34 6 15.68 6 15 C5.34 15 4.68 15 4 15 C3.32779649 13.06441401 2.66241923 11.12645628 2 9.1875 C1.62875 8.10855469 1.2575 7.02960937 0.875 5.91796875 C0 3 0 3 0 0 Z " fill="#84A8BB" transform="translate(12,29)"/>
<path d="M0 0 C1.98 0 3.96 0 6 0 C6 0.66 6 1.32 6 2 C6.71027344 1.91621094 7.42054687 1.83242187 8.15234375 1.74609375 C9.07144531 1.64425781 9.99054687 1.54242188 10.9375 1.4375 C12.31228516 1.28087891 12.31228516 1.28087891 13.71484375 1.12109375 C14.46894531 1.08113281 15.22304687 1.04117188 16 1 C16.33 1.33 16.66 1.66 17 2 C18.51469448 2.23192865 20.03754562 2.41215238 21.5625 2.5625 C22.80193359 2.68818359 22.80193359 2.68818359 24.06640625 2.81640625 C24.70449219 2.87699219 25.34257813 2.93757813 26 3 C24 5 24 5 21.28515625 5.23046875 C20.22167969 5.21628906 19.15820312 5.20210938 18.0625 5.1875 C17.00160156 5.18105469 15.94070312 5.17460938 14.84765625 5.16796875 C12 5 12 5 9 4 C7.7934375 3.7834375 7.7934375 3.7834375 6.5625 3.5625 C4.0850449 3.01866839 2.20636638 2.2257591 0 1 C0 0.67 0 0.34 0 0 Z " fill="#337DAF" transform="translate(54,79)"/>
<path d="M0 0 C2.54406781 0.42602561 5.08462785 0.86537671 7.625 1.3125 C8.33785156 1.43044922 9.05070312 1.54839844 9.78515625 1.66992188 C14.30767333 2.47899603 17.94872301 3.71876043 22 6 C22 6.33 22 6.66 22 7 C13.42782385 6.85425976 7.10392163 5.97458078 0 1 C0 0.67 0 0.34 0 0 Z " fill="#1070B5" transform="translate(43,73)"/>
<path d="M0 0 C1.32 0.99 2.64 1.98 4 3 C4.66 2.34 5.32 1.68 6 1 C7.32 1 8.64 1 10 1 C9 4 9 4 7 7 C6.61500109 8.65549531 6.27206865 10.3222433 6 12 C3.34930567 9.52601863 1.28384156 7.42357749 0 4 C0 2.68 0 1.36 0 0 Z " fill="#0F345E" transform="translate(20,43)"/>
<path d="M0 0 C1.32 0 2.64 0 4 0 C4 0.66 4 1.32 4 2 C4.66 2 5.32 2 6 2 C7.52491998 5.04983996 7.23562548 7.6423369 7 11 C5.45737187 13.10358381 4.31891683 13.84054159 2 15 C0.00039988 15.039992 -2.00047242 15.04346799 -4 15 C-3.67 14.34 -3.34 13.68 -3 13 C-1.35 13 0.3 13 2 13 C2.33 12.01 2.66 11.02 3 10 C3.66 10 4.32 10 5 10 C4.65772428 7.02934491 4.65772428 7.02934491 4 4 C3.34 3.67 2.68 3.34 2 3 C2 2.34 2 1.68 2 1 C1.34 0.67 0.68 0.34 0 0 Z " fill="#919FAE" transform="translate(56,21)"/>
<path d="M0 0 C0.99 0.33 1.98 0.66 3 1 C2.67 2.32 2.34 3.64 2 5 C2.99 5.33 3.98 5.66 5 6 C8.7645482 9.7645482 9.58789699 12.74568665 10 18 C9.34 18 8.68 18 8 18 C7.773125 16.9275 7.54625 15.855 7.3125 14.75 C5.65538374 10.0153821 3.40249925 8.20124963 -1 6 C-1.042721 4.33388095 -1.04063832 2.66617115 -1 1 C-0.67 0.67 -0.34 0.34 0 0 Z " fill="#8C9AAA" transform="translate(73,37)"/>
<path d="M0 0 C0.66 0 1.32 0 2 0 C2 0.66 2 1.32 2 2 C2.66 2 3.32 2 4 2 C4 2.99 4 3.98 4 5 C9.94 4.505 9.94 4.505 16 4 C12.77507184 7.22492816 9.79998272 7.15845551 5.4375 7.1875 C3.98150391 7.20876953 3.98150391 7.20876953 2.49609375 7.23046875 C0 7 0 7 -2 5 C-1.34 4.34 -0.68 3.68 0 3 C0 2.01 0 1.02 0 0 Z " fill="#091E3C" transform="translate(57,67)"/>
<path d="M0 0 C5.61 0 11.22 0 17 0 C17.33 1.32 17.66 2.64 18 4 C17.01 4 16.02 4 15 4 C15 3.34 15 2.68 15 2 C10.05 2 5.1 2 0 2 C0 1.34 0 0.68 0 0 Z " fill="#A6D0E2" transform="translate(11,0)"/>
<path d="M0 0 C0.66 0 1.32 0 2 0 C2 0.66 2 1.32 2 2 C0.33333333 3.66666667 -1.33333333 5.33333333 -3 7 C-3.66 6.67 -4.32 6.34 -5 6 C-7.8754532 5.60684921 -10.74111846 5.25350975 -13.625 4.9375 C-14.82769531 4.80118164 -14.82769531 4.80118164 -16.0546875 4.66210938 C-18.03607868 4.43802347 -20.01799305 4.2185725 -22 4 C-21.01 3.34 -20.02 2.68 -19 2 C-18.01 2.33 -17.02 2.66 -16 3 C-13.8365832 3.14497123 -11.66807069 3.22070175 -9.5 3.25 C-7.78296875 3.28867188 -7.78296875 3.28867188 -6.03125 3.328125 C-2.70092101 2.96762547 -2.04904264 2.49562886 0 0 Z " fill="#BDDBE9" transform="translate(82,80)"/>
<path d="M0 0 C0 0.66 0 1.32 0 2 C-2.31 2.66 -4.62 3.32 -7 4 C-5.35 4.33 -3.7 4.66 -2 5 C-2 5.33 -2 5.66 -2 6 C-5.63 6 -9.26 6 -13 6 C-13 3 -13 3 -12 2 C-10.36358203 1.60460448 -8.71529205 1.25762472 -7.0625 0.9375 C-5.71865234 0.67259766 -5.71865234 0.67259766 -4.34765625 0.40234375 C-2 0 -2 0 0 0 Z " fill="#487090" transform="translate(73,72)"/>
<path d="M0 0 C4.75809749 0.59476219 8.94710294 2.4906128 13 5 C13.33 5.66 13.66 6.32 14 7 C11.03 6.67 8.06 6.34 5 6 C5 5.34 5 4.68 5 4 C2.525 3.01 2.525 3.01 0 2 C0 1.34 0 0.68 0 0 Z " fill="#389ECD" transform="translate(42,77)"/>
<path d="M0 0 C1.32 0 2.64 0 4 0 C4 3.3 4 6.6 4 10 C3.34 10 2.68 10 2 10 C2 10.66 2 11.32 2 12 C0.1875 13.0625 0.1875 13.0625 -2 14 C-2.99 13.67 -3.98 13.34 -5 13 C-3.35 12.34 -1.7 11.68 0 11 C0.19491452 9.54263913 0.38069358 8.08405407 0.5625 6.625 C0.66691406 5.81289063 0.77132812 5.00078125 0.87890625 4.1640625 C1.18237328 1.95100814 1.18237328 1.95100814 0 0 Z " fill="#728292" transform="translate(63,50)"/>
<path d="M0 0 C3 2 3 2 4 5.0625 C4.33 6.031875 4.66 7.00125 5 8 C5.99 8.33 6.98 8.66 8 9 C8.33 10.65 8.66 12.3 9 14 C8.67 13.34 8.34 12.68 8 12 C6.7934375 11.8453125 6.7934375 11.8453125 5.5625 11.6875 C4.716875 11.460625 3.87125 11.23375 3 11 C1.75 8.5625 1.75 8.5625 1 6 C0.67 5.34 0.34 4.68 0 4 C0 2.68 0 1.36 0 0 Z " fill="#30A7DA" transform="translate(14,47)"/>
<path d="M0 0 C2.45823172 3.68734758 3.01242616 6.69699971 4 11 C4.66 11 5.32 11 6 11 C9 16.75 9 16.75 9 19 C8.01 18.67 7.02 18.34 6 18 C5.67 16.35 5.34 14.7 5 13 C4.34 13 3.68 13 3 13 C0.89172945 9.83759418 0.66182535 8.49342531 0.375 4.8125 C0.30023438 3.91144531 0.22546875 3.01039062 0.1484375 2.08203125 C0.09945313 1.39496094 0.05046875 0.70789062 0 0 Z " fill="#8AC7E0" transform="translate(12,33)"/>
<path d="M0 0 C0 1.32 0 2.64 0 4 C0.66 4 1.32 4 2 4 C2 5.65 2 7.3 2 9 C-1.7952131 7.50902342 -3.61042731 5.24299151 -6 2 C-3 0 -3 0 0 0 Z " fill="#0B274B" transform="translate(33,52)"/>
<path d="M0 0 C-2.43893416 3.35353447 -5.30054627 3.63136849 -9.125 4.4609375 C-11.40814028 5.11734033 -12.6063817 6.08377484 -14 8 C-13.12269491 5.29497597 -12.28331029 3.31599994 -10.375 1.1875 C-6.84016181 -0.5799191 -3.92581331 -0.19629067 0 0 Z " fill="#74BEDB" transform="translate(16,2)"/>
<path d="M0 0 C0.70703125 1.734375 0.70703125 1.734375 1 4 C-1.05433053 7.38070009 -3.71201338 9.82526869 -7 12 C-10.44875768 12.64389818 -13.54041438 12.51043066 -17 12 C-17.33 11.34 -17.66 10.68 -18 10 C-16.948125 10.04125 -15.89625 10.0825 -14.8125 10.125 C-9.56399141 9.95291775 -7.17810645 9.04423072 -3.25 5.5625 C-0.83198326 3.14314326 -0.83198326 3.14314326 0 0 Z " fill="#81B0CD" transform="translate(83,65)"/>
<path d="M0 0 C0.33 0 0.66 0 1 0 C0.67 2.31 0.34 4.62 0 7 C-0.66 7 -1.32 7 -2 7 C-2.33 7.99 -2.66 8.98 -3 10 C-4.98 10 -6.96 10 -9 10 C-8.2575 9.278125 -7.515 8.55625 -6.75 7.8125 C-3.98986741 5.08271502 -3.98986741 5.08271502 -1.75 2.1875 C-1.1725 1.465625 -0.595 0.74375 0 0 Z " fill="#0B71BA" transform="translate(84,69)"/>
<path d="M0 0 C-1.11940982 4.85077588 -2.1334716 7.777893 -6 11 C-6.66 10.67 -7.32 10.34 -8 10 C-7.61508669 5.50934475 -5.14531178 0 0 0 Z " fill="#59667A" transform="translate(83,61)"/>
<path d="M0 0 C-0.33 0.99 -0.66 1.98 -1 3 C-1.66 3 -2.32 3 -3 3 C-3.99 6.3 -4.98 9.6 -6 13 C-6.66 13 -7.32 13 -8 13 C-7.68554487 10.66404762 -7.3496418 8.33094534 -7 6 C-6.896875 5.236875 -6.79375 4.47375 -6.6875 3.6875 C-6 2 -6 2 -4.0625 0.75 C-2 0 -2 0 0 0 Z " fill="#9ECFE3" transform="translate(18,7)"/>
<path d="M0 0 C2.33944736 0.28730055 4.6739143 0.61936779 7 1 C7 1.66 7 2.32 7 3 C7.66 3.33 8.32 3.66 9 4 C8.34 4 7.68 4 7 4 C7 4.99 7 5.98 7 7 C5 7 5 7 3 5.125 C2.34 4.42375 1.68 3.7225 1 3 C0.34 2.34 -0.32 1.68 -1 1 C-0.67 0.67 -0.34 0.34 0 0 Z " fill="#226FA3" transform="translate(36,66)"/>
<path d="M0 0 C5.68502535 1.64566523 10.76681636 4.29032784 16 7 C12.06555268 8.31148244 10.64918023 7.33242737 6.875 5.75 C5.79992188 5.31171875 4.72484375 4.8734375 3.6171875 4.421875 C1 3 1 3 0 0 Z " fill="#91C5DC" transform="translate(44,75)"/>
<path d="M0 0 C5.94 0 11.88 0 18 0 C18 0.33 18 0.66 18 1 C12.555 1.495 12.555 1.495 7 2 C7 2.99 7 3.98 7 5 C6.34 5 5.68 5 5 5 C5 4.34 5 3.68 5 3 C4.360625 2.87625 3.72125 2.7525 3.0625 2.625 C2.381875 2.41875 1.70125 2.2125 1 2 C0.67 1.34 0.34 0.68 0 0 Z " fill="#172B47" transform="translate(38,64)"/>
<path d="M0 0 C2.25 -0.25 2.25 -0.25 5 0 C7.1875 1.9375 7.1875 1.9375 9 4 C9.66 4.33 10.32 4.66 11 5 C11 5.66 11 6.32 11 7 C7.62537285 6.45276317 5.91765 5.9451 3 4 C3 3.34 3 2.68 3 2 C2.01 2 1.02 2 0 2 C0 1.34 0 0.68 0 0 Z " fill="#9CCFE4" transform="translate(36,76)"/>
<path d="M0 0 C0.66 0 1.32 0 2 0 C2.53190541 1.43344 3.05015258 2.87195367 3.5625 4.3125 C3.85253906 5.11300781 4.14257812 5.91351563 4.44140625 6.73828125 C5 9 5 9 4 12 C-0.57142857 4.71428571 -0.57142857 4.71428571 0 0 Z " fill="#7FC0DB" transform="translate(2,31)"/>
<path d="M0 0 C0.66 0 1.32 0 2 0 C2 0.66 2 1.32 2 2 C2.66 2 3.32 2 4 2 C4.33 3.98 4.66 5.96 5 8 C3.68 7.67 2.36 7.34 1 7 C0.67 4.69 0.34 2.38 0 0 Z " fill="#29ACE3" transform="translate(4,26)"/>
<path d="M0 0 C3.37462715 0.54723683 5.08235 1.0549 8 3 C7.67 3.66 7.34 4.32 7 5 C4.03 4.505 4.03 4.505 1 4 C0.67 2.68 0.34 1.36 0 0 Z " fill="#3BA6D2" transform="translate(24,62)"/>
<path d="M0 0 C1.98 0 3.96 0 6 0 C6 0.66 6 1.32 6 2 C0.25 5 0.25 5 -2 5 C-1.34 3.35 -0.68 1.7 0 0 Z " fill="#6FB5D0" transform="translate(20,2)"/>
<path d="M0 0 C1 3 1 3 0 6 C-1.875 7.25 -1.875 7.25 -4 8 C-4.99 7.67 -5.98 7.34 -7 7 C-6.34 7 -5.68 7 -5 7 C-5 6.34 -5 5.68 -5 5 C-3.625 3.375 -3.625 3.375 -2 2 C-1.34 2 -0.68 2 0 2 C0 1.34 0 0.68 0 0 Z " fill="#176BA5" transform="translate(84,74)"/>
<path d="M0 0 C3.63 0 7.26 0 11 0 C11 0.33 11 0.66 11 1 C10.28972656 1.04898438 9.57945313 1.09796875 8.84765625 1.1484375 C7.46900391 1.26058594 7.46900391 1.26058594 6.0625 1.375 C5.14597656 1.44460937 4.22945312 1.51421875 3.28515625 1.5859375 C2.53105469 1.72257812 1.77695312 1.85921875 1 2 C0.67 2.66 0.34 3.32 0 4 C0 2.68 0 1.36 0 0 Z " fill="#0D1E3E" transform="translate(45,65)"/>
<path d="M0 0 C0 0.66 0 1.32 0 2 C-1.66666667 3.66666667 -3.33333333 5.33333333 -5 7 C-5.66 6.67 -6.32 6.34 -7 6 C-5.81636731 2.44910192 -3.99368042 0 0 0 Z " fill="#A4C6D8" transform="translate(84,80)"/>
<path d="M0 0 C3.465 1.98 3.465 1.98 7 4 C7 4.66 7 5.32 7 6 C7.99 6.33 8.98 6.66 10 7 C9.01 7.495 9.01 7.495 8 8 C7.01 7.34 6.02 6.68 5 6 C5 5.34 5 4.68 5 4 C4.360625 3.896875 3.72125 3.79375 3.0625 3.6875 C2.381875 3.460625 1.70125 3.23375 1 3 C0.67 2.01 0.34 1.02 0 0 Z " fill="#97CCE2" transform="translate(34,67)"/>
<path d="M0 0 C0.33 0.99 0.66 1.98 1 3 C1.66 3 2.32 3 3 3 C2.67 3.99 2.34 4.98 2 6 C1.01 6.33 0.02 6.66 -1 7 C-1.625 4.625 -1.625 4.625 -2 2 C-1.34 1.34 -0.68 0.68 0 0 Z " fill="#243756" transform="translate(69,36)"/>
<path d="M0 0 C1.65 0.99 3.3 1.98 5 3 C1.67465243 4.10844919 -0.62182575 3.84454356 -4 3 C-2.68 2.01 -1.36 1.02 0 0 Z " fill="#43A6CC" transform="translate(51,80)"/>
<path d="M0 0 C1.9375 0.75 1.9375 0.75 4 2 C4.75 4.125 4.75 4.125 5 6 C2.525 5.01 2.525 5.01 0 4 C0 2.68 0 1.36 0 0 Z " fill="#3A9FCC" transform="translate(33,69)"/>
<path d="M0 0 C2.79872437 2.52788007 4.45773019 4.20411134 5 8 C3.0625 7.375 3.0625 7.375 1 6 C0.25 2.875 0.25 2.875 0 0 Z " fill="#77BBDA" transform="translate(21,52)"/>
<path d="M0 0 C1.32 0.33 2.64 0.66 4 1 C4 1.66 4 2.32 4 3 C4.66 3 5.32 3 6 3 C6 3.66 6 4.32 6 5 C3.36 4.34 0.72 3.68 -2 3 C-1.34 2.67 -0.68 2.34 0 2 C0 1.34 0 0.68 0 0 Z " fill="#596577" transform="translate(71,12)"/>
<path d="M0 0 C1.32 0 2.64 0 4 0 C3.3125 2.375 3.3125 2.375 2 5 C-0.625 6.3125 -0.625 6.3125 -3 7 C-2.505 6.401875 -2.01 5.80375 -1.5 5.1875 C0.28276418 3.02970006 0.28276418 3.02970006 0 0 Z " fill="#3EA4CE" transform="translate(16,2)"/>
<path d="M0 0 C2.64 0.33 5.28 0.66 8 1 C8.33 2.32 8.66 3.64 9 5 C5.22454612 3.90931332 2.52956528 3.0916909 0 0 Z " fill="#3881B1" transform="translate(43,73)"/>
</svg>
